<mxfile host="app.diagrams.net" modified="2023-04-23T17:27:43.127Z" agent="Mozilla/5.0 (Windows NT 10.0; Win64; x64) AppleWebKit/537.36 (KHTML, like Gecko) Chrome/112.0.0.0 Safari/537.36" etag="zPP0g-dDi8C2fSgiVidc" version="21.2.1" type="device">
  <diagram name="Pagina-1" id="vM8CylMIwPM3cEyhBiXl">
    <mxGraphModel dx="2250" dy="991" grid="0" gridSize="10" guides="1" tooltips="1" connect="1" arrows="1" fold="1" page="0" pageScale="1" pageWidth="827" pageHeight="1169" math="0" shadow="0">
      <root>
        <mxCell id="0" />
        <mxCell id="1" parent="0" />
        <mxCell id="WP5Ljer4y6SUBYkRSp5--13" value="check-connection" style="rounded=0;whiteSpace=wrap;html=1;fontSize=16;" vertex="1" parent="1">
          <mxGeometry x="-567" y="-63" width="149" height="60" as="geometry" />
        </mxCell>
        <mxCell id="WP5Ljer4y6SUBYkRSp5--24" style="edgeStyle=none;curved=1;rounded=0;orthogonalLoop=1;jettySize=auto;html=1;entryX=1;entryY=0.5;entryDx=0;entryDy=0;fontSize=12;startSize=8;endSize=8;exitX=0.5;exitY=1;exitDx=0;exitDy=0;" edge="1" parent="1" source="WP5Ljer4y6SUBYkRSp5--13" target="WP5Ljer4y6SUBYkRSp5--13">
          <mxGeometry relative="1" as="geometry">
            <mxPoint x="-457" y="32" as="sourcePoint" />
            <Array as="points">
              <mxPoint x="-456" y="201" />
              <mxPoint x="-172" y="-7" />
            </Array>
          </mxGeometry>
        </mxCell>
        <mxCell id="WP5Ljer4y6SUBYkRSp5--27" style="edgeStyle=none;curved=1;rounded=0;orthogonalLoop=1;jettySize=auto;html=1;exitX=0;exitY=0.5;exitDx=0;exitDy=0;exitPerimeter=0;fontSize=12;startSize=8;endSize=8;" edge="1" parent="1">
          <mxGeometry relative="1" as="geometry">
            <mxPoint x="-567" y="-28" as="sourcePoint" />
            <mxPoint x="-671" y="-28" as="targetPoint" />
          </mxGeometry>
        </mxCell>
        <mxCell id="WP5Ljer4y6SUBYkRSp5--17" value="connected" style="text;html=1;strokeColor=none;fillColor=none;align=center;verticalAlign=middle;whiteSpace=wrap;rounded=0;fontSize=16;" vertex="1" parent="1">
          <mxGeometry x="-646" y="-22" width="60" height="30" as="geometry" />
        </mxCell>
        <mxCell id="WP5Ljer4y6SUBYkRSp5--18" value="not connected&amp;nbsp;" style="text;html=1;strokeColor=none;fillColor=none;align=center;verticalAlign=middle;whiteSpace=wrap;rounded=0;fontSize=16;" vertex="1" parent="1">
          <mxGeometry x="-375" y="43" width="81" height="30" as="geometry" />
        </mxCell>
        <mxCell id="WP5Ljer4y6SUBYkRSp5--28" style="edgeStyle=none;curved=1;rounded=0;orthogonalLoop=1;jettySize=auto;html=1;exitX=0;exitY=1;exitDx=0;exitDy=0;fontSize=12;startSize=8;endSize=8;entryX=0.885;entryY=-0.037;entryDx=0;entryDy=0;entryPerimeter=0;" edge="1" parent="1" source="WP5Ljer4y6SUBYkRSp5--19" target="WP5Ljer4y6SUBYkRSp5--29">
          <mxGeometry relative="1" as="geometry">
            <mxPoint x="-951.5999755859375" y="96.20004272460938" as="targetPoint" />
          </mxGeometry>
        </mxCell>
        <mxCell id="WP5Ljer4y6SUBYkRSp5--30" style="edgeStyle=none;curved=1;rounded=0;orthogonalLoop=1;jettySize=auto;html=1;exitX=0.25;exitY=1;exitDx=0;exitDy=0;fontSize=12;startSize=8;endSize=8;" edge="1" parent="1" source="WP5Ljer4y6SUBYkRSp5--19">
          <mxGeometry relative="1" as="geometry">
            <mxPoint x="-809" y="101.80001831054688" as="targetPoint" />
          </mxGeometry>
        </mxCell>
        <mxCell id="WP5Ljer4y6SUBYkRSp5--32" style="edgeStyle=none;curved=1;rounded=0;orthogonalLoop=1;jettySize=auto;html=1;exitX=0.75;exitY=1;exitDx=0;exitDy=0;fontSize=12;startSize=8;endSize=8;" edge="1" parent="1" source="WP5Ljer4y6SUBYkRSp5--19">
          <mxGeometry relative="1" as="geometry">
            <mxPoint x="-677.9999389648438" y="106.60003662109375" as="targetPoint" />
          </mxGeometry>
        </mxCell>
        <mxCell id="WP5Ljer4y6SUBYkRSp5--19" value="show device info and buttons to send command to che client" style="rounded=0;whiteSpace=wrap;html=1;fontSize=16;" vertex="1" parent="1">
          <mxGeometry x="-859" y="-63" width="192" height="81" as="geometry" />
        </mxCell>
        <mxCell id="WP5Ljer4y6SUBYkRSp5--29" value="" style="verticalLabelPosition=bottom;verticalAlign=top;html=1;shape=mxgraph.basic.rect;fillColor2=none;strokeWidth=1;size=20;indent=5;fontSize=16;align=left;" vertex="1" parent="1">
          <mxGeometry x="-1070" y="145" width="120" height="60" as="geometry" />
        </mxCell>
        <mxCell id="WP5Ljer4y6SUBYkRSp5--31" value="" style="verticalLabelPosition=bottom;verticalAlign=top;html=1;shape=mxgraph.basic.rect;fillColor2=none;strokeWidth=1;size=20;indent=5;fontSize=16;" vertex="1" parent="1">
          <mxGeometry x="-911" y="107" width="120" height="60" as="geometry" />
        </mxCell>
        <mxCell id="WP5Ljer4y6SUBYkRSp5--33" value="Altra operazione" style="rounded=0;whiteSpace=wrap;html=1;fontSize=16;" vertex="1" parent="1">
          <mxGeometry x="-740" y="111" width="135" height="60" as="geometry" />
        </mxCell>
        <mxCell id="WP5Ljer4y6SUBYkRSp5--35" value="Take Photo&lt;br&gt;" style="text;html=1;strokeColor=none;fillColor=none;align=center;verticalAlign=middle;whiteSpace=wrap;rounded=0;fontSize=16;" vertex="1" parent="1">
          <mxGeometry x="-1040" y="163" width="60" height="30" as="geometry" />
        </mxCell>
        <mxCell id="WP5Ljer4y6SUBYkRSp5--36" value="Send Message&lt;br&gt;" style="text;html=1;strokeColor=none;fillColor=none;align=center;verticalAlign=middle;whiteSpace=wrap;rounded=0;fontSize=16;" vertex="1" parent="1">
          <mxGeometry x="-881" y="126" width="60" height="30" as="geometry" />
        </mxCell>
      </root>
    </mxGraphModel>
  </diagram>
</mxfile>
